<svg xmlns="http://www.w3.org/2000/svg" width="15.995" height="15.995" viewBox="0 0 15.995 15.995">
  <path id="FB_Icon" data-name="FB Icon" d="M1012,1225.668a2.763,2.763,0,0,0-2.665-2.666H998.669a2.764,2.764,0,0,0-2.667,2.666v10.664a2.763,2.763,0,0,0,2.667,2.665H1004v-6.041h-1.954v-2.666H1004v-1.04a3.281,3.281,0,0,1,3-3.4h2.156v2.666H1007c-.235,0-.51.286-.51.716v1.062h2.666v2.666h-2.666V1239h2.843a2.762,2.762,0,0,0,2.665-2.665Z" transform="translate(-996.002 -1223.002)" fill="#747474"/>
</svg>
