<svg xmlns="http://www.w3.org/2000/svg" width="15.995" height="15.995" viewBox="0 0 15.995 15.995">
  <path id="Projects_Icon" data-name="Projects Icon" d="M185.5,609h-6a.5.5,0,0,1-.5-.5v-6a.5.5,0,0,1,.5-.5h6a.5.5,0,0,1,.5.5v6A.5.5,0,0,1,185.5,609Zm0-9h-6a.5.5,0,0,1-.5-.5v-6a.5.5,0,0,1,.5-.5h6a.5.5,0,0,1,.5.5v6A.5.5,0,0,1,185.5,600Zm-9,9h-6a.5.5,0,0,1-.5-.5v-6a.5.5,0,0,1,.5-.5h6a.5.5,0,0,1,.5.5v6A.5.5,0,0,1,176.5,609Zm0-9h-6a.5.5,0,0,1-.5-.5v-6a.5.5,0,0,1,.5-.5h6a.5.5,0,0,1,.5.5v6A.5.5,0,0,1,176.5,600Z" transform="translate(-170.002 -593.002)" fill="#2e2e2e"/>
</svg>
