<svg xmlns="http://www.w3.org/2000/svg" width="15.995" height="15.995" viewBox="0 0 15.995 15.995">
  <path id="IN_Icon" data-name="IN Icon" d="M1044.879,1223h-13.631a1.166,1.166,0,0,0-1.183,1.146v13.7a1.165,1.165,0,0,0,1.183,1.146h13.631a1.163,1.163,0,0,0,1.181-1.146v-13.7A1.164,1.164,0,0,0,1044.879,1223Zm-9.965,13.39H1032.5v-7.223h2.417Zm-1.208-8.209h-.016a1.381,1.381,0,1,1,.016,0Zm9.92,8.209h-2.416v-3.864c0-.972-.35-1.634-1.224-1.634a1.318,1.318,0,0,0-1.238.879,1.608,1.608,0,0,0-.082.586v4.034h-2.414s.031-6.545,0-7.223h2.414v1.025a2.4,2.4,0,0,1,2.177-1.194c1.591,0,2.783,1.032,2.783,3.251Zm-4.974-6.176.014-.023v.023Z" transform="translate(-1030.065 -1223.002)" fill="#2e2e2e"/>
</svg>
