<svg xmlns="http://www.w3.org/2000/svg" width="15.995" height="15.995" viewBox="0 0 15.995 15.995">
  <path id="Pin_Icon" data-name="Pin Icon" d="M1064.972,1223.707a5.928,5.928,0,0,0-3.845,4.5,6.523,6.523,0,0,0,.425,3.929,4.356,4.356,0,0,0,.463.769,3.357,3.357,0,0,0,.286.335,3.247,3.247,0,0,0,.527-.241,12.092,12.092,0,0,0,1.8-1.505c-1.991-2.307.119-5.164,2.758-5.8,2.456-.593,5.787.428,6.532,2.957a2.825,2.825,0,0,1-.747,2.963,3.326,3.326,0,0,1-1.612.765,3.936,3.936,0,0,1-1.063.037,4.787,4.787,0,0,1-.586-.1c-.327-.077-.617-.066-.617-.419v-4.147c0-.282.028-.229-.206-.258-.185-.022-.37-.041-.555-.056a8.041,8.041,0,0,0-1.981.026c-.242.042-.257,0-.257.265v2.187c0,1.543.117,3.1.053,4.646-.018.46-.031,1.562-.546,1.789-.6.263-1.123-.294-1.672-.41.076.773-.408,2.307.494,2.7a3.708,3.708,0,0,0,2.65.2c1.826-.62,2.417-2.652,2.186-4.322a6,6,0,0,0,7.069-3.113,5.339,5.339,0,0,0-.8-5.607C1073.314,1222.9,1068.4,1222.35,1064.972,1223.707Z" transform="translate(-1061.003 -1223.002)" fill="#2e2e2e"/>
</svg>
