<svg xmlns="http://www.w3.org/2000/svg" width="15.995" height="15.995" viewBox="0 0 15.995 15.995">
  <path id="Rss_Icon" data-name="Rss Icon" d="M173.355,948.328a2.1,2.1,0,0,1,0,2.991h0a2.12,2.12,0,1,1-3-2.992h0a2.126,2.126,0,0,1,3,0Zm0,0Zm-3,2.992h0Zm-.621-9.917v3.055a7.495,7.495,0,0,1,7.485,7.5h0v.006h3.066A10.576,10.576,0,0,0,169.732,941.4Zm0-5.439v3.054a12.954,12.954,0,0,1,12.927,12.941h3.062a16.017,16.017,0,0,0-15.988-15.995Z" transform="translate(-169.73 -935.964)" fill="#2e2e2e"/>
</svg>
