<svg xmlns="http://www.w3.org/2000/svg" width="15.995" height="15.995" viewBox="0 0 15.995 15.995">
  <path id="Subscribe_Icon" data-name="Subscribe Icon" d="M819,952a8,8,0,1,1,8-8A8,8,0,0,1,819,952Zm4.939-10.715a4.4,4.4,0,0,0-2.6-2.559,5.567,5.567,0,0,0-1.989-.345,6.317,6.317,0,0,0-1.654.208,5.552,5.552,0,0,0-1.415.594,5.209,5.209,0,0,0-1.145.93,5.626,5.626,0,0,0-.85,1.209,6.19,6.19,0,0,0-.533,1.442,6.989,6.989,0,0,0-.185,1.623,6.231,6.231,0,0,0,.356,2.177,4.4,4.4,0,0,0,1.025,1.623A4.45,4.45,0,0,0,816.6,949.2a6.48,6.48,0,0,0,2.21.351,7.969,7.969,0,0,0,1.671-.167,7.175,7.175,0,0,0,1.424-.454v-1.312q-.349.138-.735.253c-.257.078-.519.143-.785.2s-.535.1-.8.13a6.717,6.717,0,0,1-.786.048,4.569,4.569,0,0,1-1.592-.256,3.04,3.04,0,0,1-1.162-.752,3.184,3.184,0,0,1-.711-1.223,5.359,5.359,0,0,1-.239-1.671,6.02,6.02,0,0,1,.277-1.872,4.241,4.241,0,0,1,.812-1.479,3.668,3.668,0,0,1,1.334-.974,4.555,4.555,0,0,1,1.841-.348,3.791,3.791,0,0,1,1.381.246,3.072,3.072,0,0,1,1.1.718,3.316,3.316,0,0,1,.72,1.155,4.371,4.371,0,0,1,.26,1.558,6.164,6.164,0,0,1-.061.892,3.683,3.683,0,0,1-.178.735,1.419,1.419,0,0,1-.294.5.561.561,0,0,1-.417.184l-.194-.041-.164-.146a.9.9,0,0,1-.117-.291,2.093,2.093,0,0,1-.044-.472v-.184c0-.1,0-.194.014-.294l.144-2.863c-.128-.045-.28-.091-.458-.137s-.368-.086-.571-.123-.413-.066-.632-.089a6.109,6.109,0,0,0-.636-.034,3.279,3.279,0,0,0-1.271.236,2.717,2.717,0,0,0-.964.662,2.931,2.931,0,0,0-.608,1.015,3.776,3.776,0,0,0-.212,1.292,3.712,3.712,0,0,0,.157,1.11,2.472,2.472,0,0,0,.458.862,2.026,2.026,0,0,0,.741.553,2.473,2.473,0,0,0,1.009.195,2.062,2.062,0,0,0,.557-.072,2.018,2.018,0,0,0,.468-.195,2.1,2.1,0,0,0,.383-.284,2.7,2.7,0,0,0,.3-.331h.1a1.2,1.2,0,0,0,.215.352,1.476,1.476,0,0,0,.332.28,1.654,1.654,0,0,0,.42.185,1.8,1.8,0,0,0,.489.065,1.994,1.994,0,0,0,1.118-.311,2.628,2.628,0,0,0,.789-.813,3.852,3.852,0,0,0,.469-1.138,5.8,5.8,0,0,0-.216-3.362Zm-4.212,3.284a2.181,2.181,0,0,1-.205.58,1.027,1.027,0,0,1-.342.376.9.9,0,0,1-.5.133.826.826,0,0,1-.69-.338,1.838,1.838,0,0,1-.26-1.1,3.382,3.382,0,0,1,.079-.728,2.023,2.023,0,0,1,.252-.639,1.377,1.377,0,0,1,.455-.451,1.291,1.291,0,0,1,.683-.171,3.4,3.4,0,0,1,.376.021,2.415,2.415,0,0,1,.321.055l-.082,1.51A4.933,4.933,0,0,1,819.726,944.566Z" transform="translate(-811.002 -936.002)" fill="#2e2e2e"/>
</svg>
