<svg xmlns="http://www.w3.org/2000/svg" width="23.432" height="16.143" viewBox="0 0 23.432 16.143">
  <path id="Twitter_Icon" data-name="Twitter Icon" d="M508.168,942.833a2.845,2.845,0,0,0,2.552-1.519,4.177,4.177,0,0,1-2.763.306c-.039-.189-.084-.372-.127-.535-.622-2.28-2.743-4.113-4.968-3.89.18-.072.363-.143.545-.2.245-.086,1.683-.32,1.455-.829-.192-.443-1.946.338-2.277.44.436-.163,1.159-.443,1.236-.947a3.455,3.455,0,0,0-1.832.87,1.278,1.278,0,0,0,.351-.7c-1.783,1.138-2.824,3.435-3.667,5.664a8.683,8.683,0,0,0-1.774-1.427,46.447,46.447,0,0,0-6.013-2.646,3.185,3.185,0,0,0,2,2.946,4.877,4.877,0,0,0-1.441.172c.2,1.053.853,1.916,2.624,2.334a2.15,2.15,0,0,0-1.607.635,2.723,2.723,0,0,0,2.886,1.413c-1.8.775-.732,2.211.729,2a6.213,6.213,0,0,1-8.69.232c5.9,8.04,18.724,4.757,20.635-2.989a3.552,3.552,0,0,0,2.8-1.055A5.712,5.712,0,0,1,508.168,942.833Z" transform="translate(-487.39 -935.657)" fill="#2e2e2e"/>
</svg>
