<svg xmlns="http://www.w3.org/2000/svg" width="21.413" height="14.752" viewBox="0 0 21.413 14.752">
  <path id="Twitter_Icon" data-name="Twitter Icon" d="M1107.991,1230.224a2.6,2.6,0,0,0,2.332-1.388,3.816,3.816,0,0,1-2.525.28c-.036-.172-.077-.34-.116-.489a4.6,4.6,0,0,0-4.54-3.555c.164-.065.331-.131.5-.186.224-.078,1.538-.293,1.33-.758-.175-.405-1.778.308-2.081.4.4-.149,1.059-.405,1.129-.865a3.155,3.155,0,0,0-1.674.795,1.169,1.169,0,0,0,.321-.638c-1.63,1.04-2.581,3.139-3.351,5.176a7.938,7.938,0,0,0-1.621-1.3,42.453,42.453,0,0,0-5.5-2.418,2.911,2.911,0,0,0,1.832,2.692,4.46,4.46,0,0,0-1.317.157c.182.962.78,1.751,2.4,2.133a1.965,1.965,0,0,0-1.468.58,2.488,2.488,0,0,0,2.637,1.291c-1.643.708-.669,2.021.667,1.825a5.678,5.678,0,0,1-7.942.212c5.391,7.348,17.111,4.347,18.857-2.731a3.246,3.246,0,0,0,2.556-.965A5.22,5.22,0,0,1,1107.991,1230.224Z" transform="translate(-1089.003 -1223.666)" fill="#2e2e2e"/>
</svg>
